<svg xmlns="http://www.w3.org/2000/svg" xmlns:xlink="http://www.w3.org/1999/xlink" width="30" height="20" viewBox="0 0 30 20">
    <defs>
        <path id="b" d="M0 0h1440v495H0z"/>
        <filter id="a" width="100.6%" height="101.6%" x="-.1%" y="-.4%" filterUnits="objectBoundingBox">
            <feOffset dx="2" dy="2" in="SourceAlpha" result="shadowOffsetOuter1"/>
            <feGaussianBlur in="shadowOffsetOuter1" result="shadowBlurOuter1" stdDeviation="1"/>
            <feColorMatrix in="shadowBlurOuter1" values="0 0 0 0 0 0 0 0 0 0 0 0 0 0 0 0 0 0 0.15 0"/>
        </filter>
    </defs>
    <g fill="none" fill-rule="evenodd">
        <path fill="#FFF" d="M-1144 98H296v-495h-1440z"/>
        <g fill="#000" opacity=".03" transform="matrix(1 0 0 -1 -1144 98)">
            <use filter="url(#a)" xlink:href="#b"/>
            <use xlink:href="#b"/>
        </g>
        <g fill="#000" fill-rule="nonzero">
            <path d="M14.716 4.872c-2.756 0-4.98 2.29-4.98 5.128s2.224 5.128 4.98 5.128c2.757 0 4.98-2.29 4.98-5.128s-2.223-5.128-4.98-5.128zm0 8.462c-1.781 0-3.237-1.495-3.237-3.334s1.452-3.334 3.237-3.334c1.786 0 3.238 1.495 3.238 3.334s-1.456 3.334-3.238 3.334zm6.346-8.671c0 .664-.52 1.196-1.162 1.196-.646 0-1.161-.536-1.161-1.196 0-.661.52-1.197 1.161-1.197.642 0 1.162.536 1.162 1.197zm3.298 1.213c-.073-1.602-.429-3.02-1.569-4.19C21.656.516 20.277.15 18.721.07c-1.603-.093-6.41-.093-8.014 0-1.551.076-2.93.442-4.07 1.611-1.14 1.17-1.49 2.589-1.569 4.19-.09 1.652-.09 6.601 0 8.253.074 1.602.43 3.02 1.57 4.19 1.14 1.17 2.513 1.535 4.07 1.616 1.603.093 6.41.093 8.013 0 1.556-.076 2.935-.442 4.07-1.616 1.136-1.17 1.491-2.588 1.57-4.19.09-1.652.09-6.596 0-8.248zm-2.071 10.02a3.328 3.328 0 0 1-1.847 1.9c-1.279.523-4.313.402-5.726.402-1.413 0-4.45.116-5.725-.402a3.328 3.328 0 0 1-1.847-1.9c-.507-1.317-.39-4.441-.39-5.896s-.112-4.583.39-5.895a3.328 3.328 0 0 1 1.847-1.901c1.278-.523 4.312-.402 5.725-.402 1.413 0 4.452-.116 5.726.402a3.328 3.328 0 0 1 1.847 1.9c.507 1.317.39 4.441.39 5.896s.117 4.583-.39 5.895z"/>
        </g>
    </g>
</svg>
