<svg xmlns="http://www.w3.org/2000/svg" xmlns:xlink="http://www.w3.org/1999/xlink" width="30" height="20" viewBox="0 0 30 20">
    <defs>
        <path id="b" d="M0 0h1440v495H0z"/>
        <filter id="a" width="100.6%" height="101.6%" x="-.1%" y="-.4%" filterUnits="objectBoundingBox">
            <feOffset dx="2" dy="2" in="SourceAlpha" result="shadowOffsetOuter1"/>
            <feGaussianBlur in="shadowOffsetOuter1" result="shadowBlurOuter1" stdDeviation="1"/>
            <feColorMatrix in="shadowBlurOuter1" values="0 0 0 0 0 0 0 0 0 0 0 0 0 0 0 0 0 0 0.15 0"/>
        </filter>
    </defs>
    <g fill="none" fill-rule="evenodd">
        <path fill="#FFF" d="M-1206 98H234v-495h-1440z"/>
        <g fill="#000" opacity=".03" transform="matrix(1 0 0 -1 -1206 98)">
            <use filter="url(#a)" xlink:href="#b"/>
            <use xlink:href="#b"/>
        </g>
        <g fill="#000" fill-rule="nonzero">
            <path d="M29.096 3.13A3.59 3.59 0 0 0 26.559.597C24.321 0 15.348 0 15.348 0S6.374 0 4.137.598A3.59 3.59 0 0 0 1.6 3.13C1 5.362 1 10.02 1 10.02s0 4.658.6 6.891c.33 1.232 1.302 2.162 2.537 2.49C6.374 20 15.347 20 15.347 20s8.974 0 11.212-.598c1.235-.33 2.207-1.26 2.537-2.49.6-2.234.6-6.892.6-6.892s0-4.658-.6-6.89zM12.413 14.25V5.79l7.5 4.23-7.5 4.23z"/>
        </g>
    </g>
</svg>
