<svg xmlns="http://www.w3.org/2000/svg" xmlns:xlink="http://www.w3.org/1999/xlink" width="30" height="20" viewBox="0 0 30 20">
    <defs>
        <path id="b" d="M0 0h1440v495H0z"/>
        <filter id="a" width="100.6%" height="101.6%" x="-.1%" y="-.4%" filterUnits="objectBoundingBox">
            <feOffset dx="2" dy="2" in="SourceAlpha" result="shadowOffsetOuter1"/>
            <feGaussianBlur in="shadowOffsetOuter1" result="shadowBlurOuter1" stdDeviation="1"/>
            <feColorMatrix in="shadowBlurOuter1" values="0 0 0 0 0 0 0 0 0 0 0 0 0 0 0 0 0 0 0.15 0"/>
        </filter>
    </defs>
    <g fill="none" fill-rule="evenodd">
        <path fill="#FFF" d="M-1082 98H358v-495h-1440z"/>
        <g fill="#000" opacity=".03" transform="matrix(1 0 0 -1 -1082 98)">
            <use filter="url(#a)" xlink:href="#b"/>
            <use xlink:href="#b"/>
        </g>
        <g fill="#000">
            <path d="M25.235 4.984c.016.22.016.438.016.657C25.25 12.312 20.14 20 10.8 20A14.42 14.42 0 0 1 3 17.734c.409.047.802.063 1.227.063 2.374 0 4.56-.797 6.305-2.156a5.084 5.084 0 0 1-4.749-3.5c.315.046.63.078.96.078.456 0 .912-.063 1.336-.172-2.327-.469-4.073-2.5-4.073-4.953V7.03a5.14 5.14 0 0 0 2.296.64A5.035 5.035 0 0 1 4.73.922a14.468 14.468 0 0 0 10.473 5.282 5.662 5.662 0 0 1-.126-1.156C15.077 2.266 17.34 0 20.156 0c1.462 0 2.783.61 3.711 1.594A10.039 10.039 0 0 0 27.091.375a5.04 5.04 0 0 1-2.233 2.781c1.022-.11 2.013-.39 2.925-.781a10.88 10.88 0 0 1-2.548 2.61z"/>
        </g>
    </g>
</svg>
